<?xml version="1.0" encoding="UTF-8"?><svg id="Layer_2" xmlns="http://www.w3.org/2000/svg" viewBox="0 0 713.67 530.22"><defs><style>.cls-1{fill:#d91f26;}.cls-2{fill:#da1f26;}</style></defs><polygon class="cls-1" points="0 0 139.99 0 139.99 408.14 306.42 408.14 306.42 526.98 0 526.98 0 0"/><path class="cls-1" d="M626.21,0h-240.78l-14.31,283.09h130.03s51.64,1.24,51.64,41.06-28.78,83.99-215.27,83.99v118.83s360.84,46.69,360.84-214.03c0-136.88-120.55-141.5-120.55-141.5h-67.33v-52.61h147.45L626.21,0Z"/><path class="cls-2" d="M713.67,14.9c0,8.45-6.63,15.08-15.26,15.08s-15.35-6.63-15.35-15.08,6.81-14.9,15.35-14.9,15.26,6.63,15.26,14.9Zm-26.81,0c0,6.63,4.91,11.91,11.63,11.91s11.36-5.27,11.36-11.82-4.81-11.99-11.45-11.99-11.54,5.36-11.54,11.91Zm9.18,7.81h-3.46V7.81c1.36-.27,3.27-.46,5.73-.46,2.82,0,4.08,.46,5.18,1.09,.81,.64,1.45,1.82,1.45,3.27,0,1.64-1.27,2.91-3.09,3.46v.18c1.45,.54,2.27,1.64,2.72,3.63,.46,2.27,.73,3.18,1.1,3.73h-3.73c-.45-.54-.73-1.91-1.18-3.63-.27-1.64-1.18-2.36-3.09-2.36h-1.64v6Zm.09-8.45h1.64c1.91,0,3.46-.64,3.46-2.18,0-1.36-1-2.27-3.18-2.27-.91,0-1.55,.09-1.91,.18v4.27Z"/></svg>
