<svg xmlns="http://www.w3.org/2000/svg" width="53" height="45" viewBox="0 0 53 45" fill="none">
<path d="M0 45C0 42.0438 0 39.1423 0 36.2956C0 33.3394 0.0548656 30.5474 0.164596 27.9197C0.274327 18.9416 1.5911 12.0985 4.11491 7.39051C6.74845 2.57299 11.4669 0.109488 18.2702 0L20.9037 7.39051C17.0631 7.60949 14.4845 9.14234 13.1677 11.9891C11.9607 14.8358 11.3571 18.8321 11.3571 23.9781H21.5621V45H0ZM31.4379 45C31.4379 42.0438 31.4379 39.1423 31.4379 36.2956C31.4379 33.3394 31.4928 30.5474 31.6025 27.9197C31.7122 18.9416 33.029 12.0985 35.5528 7.39051C38.1863 2.57299 42.9048 0.109488 49.7081 0L52.3416 7.39051C48.501 7.60949 45.9224 9.14234 44.6056 11.9891C43.3986 14.8358 42.795 18.8321 42.795 23.9781H53V45H31.4379Z"/>
</svg>
