<svg width="43" height="32" viewBox="0 0 43 32" fill="none" xmlns="http://www.w3.org/2000/svg">
<path d="M42.0567 4.9678C41.585 3.01326 40.0914 1.46591 38.2834 0.977273C34.9031 0 21.5393 0 21.5393 0C21.5393 0 8.09689 0 4.71664 0.977273C2.90859 1.46591 1.41499 3.01326 0.943327 4.9678C0 8.38826 0 15.7178 0 15.7178C0 15.7178 0 22.9659 0.943327 26.4678C1.41499 28.4223 2.90859 29.8883 4.71664 30.3769C8.09689 31.2727 21.5393 31.2727 21.5393 31.2727C21.5393 31.2727 34.9031 31.2727 38.2834 30.3769C40.0914 29.8883 41.585 28.4223 42.0567 26.4678C43 22.9659 43 15.7178 43 15.7178C43 15.7178 43 8.38826 42.0567 4.9678ZM17.1371 22.3144V9.12121L28.2998 15.7178L17.1371 22.3144Z"/>
</svg>
